<?xml version="1.0" encoding="UTF-8" standalone="no"?>
<!-- Created with Inkscape (http://www.inkscape.org/) -->

<svg
   xmlns:dc="http://purl.org/dc/elements/1.1/"
   xmlns:cc="http://creativecommons.org/ns#"
   xmlns:rdf="http://www.w3.org/1999/02/22-rdf-syntax-ns#"
   xmlns:svg="http://www.w3.org/2000/svg"
   xmlns="http://www.w3.org/2000/svg"
   xmlns:sodipodi="http://sodipodi.sourceforge.net/DTD/sodipodi-0.dtd"
   xmlns:inkscape="http://www.inkscape.org/namespaces/inkscape"
   id="svg5630"
   version="1.1"
   inkscape:version="0.91 r13725"
   width="237.13274"
   height="230.9202"
   viewBox="0 0 237.13273 230.9202"
   sodipodi:docname="logo-t.svg">
  <metadata
     id="metadata5636">
    <rdf:RDF>
      <cc:Work
         rdf:about="">
        <dc:format>image/svg+xml</dc:format>
        <dc:type
           rdf:resource="http://purl.org/dc/dcmitype/StillImage" />
        <dc:title></dc:title>
      </cc:Work>
    </rdf:RDF>
  </metadata>
  <defs
     id="defs5634" />
  <sodipodi:namedview
     pagecolor="#ffffff"
     bordercolor="#666666"
     borderopacity="1"
     objecttolerance="10"
     gridtolerance="10"
     guidetolerance="10"
     inkscape:pageopacity="0"
     inkscape:pageshadow="2"
     inkscape:window-width="1760"
     inkscape:window-height="924"
     id="namedview5632"
     showgrid="false"
     fit-margin-top="0"
     fit-margin-left="0"
     fit-margin-right="0"
     fit-margin-bottom="0"
     inkscape:zoom="2.8896485"
     inkscape:cx="185.44908"
     inkscape:cy="105.59988"
     inkscape:window-x="0"
     inkscape:window-y="24"
     inkscape:window-maximized="0"
     inkscape:current-layer="svg5630" />
  <g
     id="g6813"
     transform="translate(-110.78328,-30.494888)">
    <path
       inkscape:connector-curvature="0"
       id="path6802"
       d="m 221.59012,261.2854 c -0.33,-0.0475 -2.38875,-0.2485 -4.575,-0.44659 -3.975,-0.36017 -3.975,-0.36017 -3.975,-32.73876 0,-32.3786 0,-32.3786 2.07228,-29.28756 7.01901,10.46962 16.96947,19.13104 28.37772,24.70149 7.52066,3.67221 13.51507,5.38467 22.05,6.29918 21.37693,2.2905 41.25665,-4.36892 56.31922,-18.86614 15.31646,-14.74157 22.63397,-33.39067 21.37259,-54.46927 -1.04276,-17.42531 -7.136,-31.50129 -18.89021,-43.63821 -11.53473,-11.91029 -24.13513,-18.596415 -39.75396,-21.094563 -4.69905,-0.751587 -16.62486,-0.746961 -21.43695,0.0083 -12.52912,1.966503 -23.15862,6.671652 -33.31069,14.744973 -1.5675,1.24654 -3.85186,2.76837 -5.07635,3.38185 -2.01791,1.01099 -2.45327,1.11551 -4.65,1.11642 -2.89246,10e-4 -4.35727,-0.45873 -5.90003,-1.85253 -2.31434,-2.09086 -3.12569,-7.05787 -1.75244,-10.72822 1.47314,-3.937329 6.49005,-7.43583 12.52305,-8.732856 1.15066,-0.24738 3.67522,-0.434235 5.92167,-0.438291 3.72885,-0.0067 4.01198,0.03649 5.92725,0.904917 2.84772,1.291218 5.30086,1.794753 8.75685,1.797438 6.73317,0.0052 12.16255,-2.344578 16.87156,-7.30194 5.00134,-5.265114 6.87304,-10.893915 6.46861,-19.45323 -0.17848,-3.77742 -0.17848,-3.77742 1.59068,-4.141818 6.47519,-1.333697 13.70156,-6.358175 15.95932,-11.096469 1.60896,-3.376669 1.85591,-3.028314 -4.14017,-5.840173 -5.25,-2.461986 -5.25,-2.461986 -5.42454,0.264093 -0.096,1.499344 -0.41201,3.53608 -0.70226,4.52608 -0.77037,2.627677 -2.76157,6.280078 -4.26974,7.831867 -1.26433,1.300899 -3.3642,2.517542 -4.30346,2.493379 -0.2608,-0.0067 -0.92516,-1.002876 -1.58012,-2.369277 -3.15657,-6.585412 -8.46186,-10.601578 -15.65318,-11.849665 -2.47069,-0.428799 -8.32644,-0.193436 -10.8167,0.434761 -4.91067,1.238774 -9.52889,4.209661 -12.65532,8.141134 -3.26673,4.107904 -4.81732,8.078112 -5.10623,13.074258 -0.42441,7.339239 1.94502,13.589328 6.95643,18.349677 2.25693,2.143876 2.25693,2.143876 -0.40468,2.143876 -4.92164,0 -10.09442,1.277913 -14.8902,3.67857 -9.13928,4.574904 -13.11197,9.667109 -12.66348,16.232119 0.21109,3.08998 0.85236,4.90819 2.31854,6.57386 1.72418,1.95878 4.19135,2.96749 7.70795,3.15143 1.83786,0.0961 2.78699,0.26481 2.78699,0.4953 0,0.19224 -0.75156,1.62138 -1.67013,3.17587 -8.42032,14.24955 -22.61001,20.87022 -36.93937,17.23528 -7.28337,-1.84758 -14.72203,-7.1246 -20.07661,-14.24243 -3.07107,-4.08239 -7.2838,-13.21941 -7.67522,-16.64689 -0.0861,-0.75358 0.99863,-1.28162 36.81133,-17.92009 20.295,-9.428994 36.9437,-17.173695 36.99712,-17.210445 0.20897,-0.143763 -0.89393,-1.93407 -2.67733,-4.346055 -6.29045,-8.507589 -16.03928,-14.722595 -26.90569,-17.152732 -2.49671,-0.558359 -3.83794,-0.651709 -9.3641,-0.651745 -5.54493,-3.6e-5 -6.8789,0.0934 -9.50653,0.665873 -10.12295,2.205457 -18.75671,7.431243 -25.44284,15.399879 -5.13108,6.115305 -8.153,12.230688 -9.81171,19.855683 -0.56229,2.584833 -0.66671,4.005603 -0.67661,9.206523 -0.0102,5.337345 0.0808,6.582549 0.68851,9.423439 2.58985,12.10688 9.7151,22.33571 20.44918,29.35631 14.49529,9.48061 34.55915,9.28781 49.14073,-0.4722 1.35018,-0.90372 2.36228,-1.48887 2.24912,-1.30034 -0.11315,0.18854 -0.63406,1.01779 -1.15756,1.84279 -2.56619,4.0441 -4.72621,9.56673 -5.89432,15.07036 -0.68548,3.22964 -0.68548,3.22964 -0.76968,56.40464 -0.0682,43.06834 -0.15747,53.175 -0.4697,53.175 -0.89785,0 -10.06804,-2.78322 -13.89575,-4.21746 -33.4744,-12.54284 -59.30295,-38.9678 -70.50453,-72.13254 -3.68203,-10.90148 -5.41868,-20.95899 -5.70759,-33.05448 -0.2763,-11.568 0.62593,-19.78715 3.3695,-30.69552 10.47306,-41.640635 45.12433,-74.96242 87.94135,-84.567256 9.12763,-2.047535 14.55339,-2.704448 24.25189,-2.936253 8.07418,-0.192981 13.54225,0.105865 20.69654,1.131129 44.30026,6.34856 81.76828,37.424567 95.36085,79.09236 2.37075,7.2675 3.87413,13.98217 4.88761,21.83002 0.7699,5.96159 0.7699,20.73841 0,26.7 -2.81811,21.82188 -10.86677,40.79881 -24.62065,58.05 -3.79119,4.75521 -12.74476,13.71051 -17.42781,17.43118 -19.62436,15.59149 -41.56692,24.32081 -66.24134,26.35252 -3.37151,0.27762 -15.82612,0.38331 -17.45866,0.14817 z m 45.9,-33.31759 c -10.74082,-1.11505 -19.41347,-3.93394 -27.8334,-9.04675 -10.5848,-6.42737 -19.86792,-15.95494 -25.22788,-25.89219 -1.38872,-2.57466 -1.38872,-2.57466 -1.38296,-7.2 0.006,-4.62534 0.006,-4.62534 1.44386,-1.92534 5.84914,10.98158 12.8909,17.01914 22.77383,19.52615 7.93485,2.01285 17.69706,1.55292 26.07195,-1.22833 13.22009,-4.3903 24.74562,-16.00594 29.16976,-29.39782 3.13327,-9.48442 3.09454,-20.76689 -0.10401,-30.29519 -1.92758,-5.74217 -5.57787,-11.70266 -10.08061,-16.46042 -7.25241,-7.66317 -15.12471,-12.08706 -25.02345,-14.0621 -4.4912,-0.8961 -13.23614,-0.95668 -17.70709,-0.12267 -6.24348,1.16466 -12.23412,3.56517 -17.21193,6.89702 -1.36183,0.91152 -2.43376,1.56329 -2.38206,1.44838 0.0517,-0.11491 0.85991,-1.55805 1.79603,-3.20697 1.51562,-2.66967 1.90993,-3.1359 3.6,-4.25659 1.04388,-0.69219 3.18046,-2.2877 4.74796,-3.54555 10.18414,-8.1724 20.71932,-13.079644 32.60687,-15.188176 5.13404,-0.910641 14.56272,-0.981018 19.14313,-0.142887 17.17657,3.143001 32.71657,15.875593 41.71901,34.182183 4.38155,8.90996 6.67947,18.11273 7.30993,29.27502 1.08639,19.23439 -4.14242,36.20224 -15.49995,50.29843 -3.10708,3.85629 -8.181,8.7142 -11.80092,11.29852 -5.62937,4.01889 -13.13118,7.14916 -20.07159,8.37523 -3.34778,0.59141 -12.95293,0.99224 -16.05648,0.67005 z m -23.4,-27.62633 c -12.75548,-1.73118 -24.20802,-12.47343 -28.89065,-27.09883 -1.73071,-5.40558 -2.00305,-7.51097 -1.99712,-15.43912 0.005,-6.29281 0.0886,-7.58044 0.66593,-10.2194 0.95109,-4.34755 1.97404,-7.32739 3.80387,-11.0806 4.06022,-8.32807 11.31764,-15.72762 18.36816,-18.72789 4.53267,-1.92882 6.34664,-2.26772 12.09981,-2.26053 4.4873,0.006 5.62045,0.10515 7.8,0.68514 3.13852,0.83517 7.89782,3.15499 10.5,5.11799 6.22707,4.69751 12.14057,13.06359 14.65657,20.73529 3.19256,9.73458 3.15723,22.11667 -0.0912,31.97679 -1.23246,3.74092 -3.8875,8.74799 -6.44189,12.1486 -5.98749,7.971 -12.81883,12.4593 -21.18368,13.918 -2.40092,0.41869 -7.09607,0.54229 -9.28977,0.24456 z m -97.9457,-99.31295 c -0.56857,-4.787744 -0.45175,-11.831339 0.26507,-15.981479 2.49733,-14.458752 12.06701,-27.380027 23.57801,-31.835751 4.24933,-1.644847 7.43906,-2.137813 12.75262,-1.970889 3.85996,0.12126 5.10873,0.280862 7.35,0.939381 7.91389,2.325224 15.14769,7.742503 19.9744,14.958507 1.80832,2.703465 3.40897,5.581863 3.213,5.777832 -0.13632,0.136323 -66.47766,31.337399 -66.6312,31.337399 -0.0654,0 -0.29125,-1.45125 -0.5019,-3.225 z m 97.32621,-12.042065 c -1.71708,-0.779898 -3.95951,-3.171522 -5.5029,-5.869026 -5.76608,-10.077801 -5.08461,-25.97441 1.4238,-33.213333 1.69692,-1.887383 3.27041,-2.696444 5.27925,-2.714495 2.06424,-0.01855 3.87055,0.824976 5.66671,2.646284 7.07718,7.17628 8.81161,23.173275 3.62842,33.465708 -1.27318,2.528193 -3.41493,4.928817 -5.07579,5.689293 -1.53739,0.703941 -3.86407,0.702039 -5.41949,-0.0044 z"
       style="fill:#ffffff" />
  </g>
</svg>
